<?xml version="1.0" standalone="no"?>
<!DOCTYPE svg PUBLIC "-//W3C//DTD SVG 20010904//EN"
 "http://www.w3.org/TR/2001/REC-SVG-20010904/DTD/svg10.dtd">
<svg version="1.0" xmlns="http://www.w3.org/2000/svg"
 width="206.000000pt" height="206.000000pt" viewBox="0 0 206.000000 206.000000"
 preserveAspectRatio="xMidYMid meet">
<metadata>
Created by potrace 1.11, written by Peter Selinger 2001-2013
</metadata>
<g transform="translate(0.000000,206.000000) scale(0.100000,-0.100000)"
fill="#000000" stroke="none">
<path d="M1830 1471 c-8 -6 -16 -24 -18 -41 -2 -21 0 -30 7 -25 6 3 9 10 7 14
-3 4 5 7 18 7 26 0 51 -22 36 -31 -6 -3 -10 -2 -10 3 0 6 -7 13 -16 16 -11 4
-15 2 -11 -7 3 -8 -3 -14 -16 -14 -11 -1 -25 -7 -31 -14 -7 -7 -7 -10 -1 -6 6
3 12 -3 12 -14 2 -18 -1 -17 -19 6 -11 14 -22 24 -25 21 -3 -2 -19 1 -36 8
-36 13 -56 14 -74 3 -6 -4 -14 -3 -18 3 -11 17 -31 11 -31 -10 0 -11 6 -20 13
-20 7 0 13 -4 13 -9 0 -5 -8 -8 -17 -6 -10 2 -21 4 -24 4 -3 1 -5 12 -4 26 2
14 -1 25 -7 25 -5 0 -6 -9 -3 -21 5 -14 3 -19 -3 -15 -6 3 -8 -2 -5 -13 3 -12
12 -17 28 -15 13 1 26 -4 29 -12 3 -7 12 -11 20 -8 11 4 19 -3 26 -21 6 -15 8
-30 5 -33 -3 -3 -5 -1 -5 4 0 22 -38 11 -51 -14 -8 -15 -20 -31 -26 -35 -19
-12 -16 -27 5 -20 18 7 17 5 -12 -17 -13 -10 -17 -10 -12 -2 4 6 2 12 -3 12
-15 0 -14 -27 2 -33 9 -4 9 -6 -1 -6 -8 -1 -16 8 -19 18 -3 12 -11 17 -20 14
-8 -3 -19 0 -24 8 -7 12 -9 12 -9 -1 0 -10 -3 -11 -8 -3 -5 8 -11 3 -19 -14
-7 -14 -10 -23 -7 -20 12 12 32 -17 22 -30 -7 -9 -3 -15 16 -23 32 -12 33 -16
4 -16 -28 0 -40 15 -32 40 4 12 2 17 -7 14 -8 -3 -15 -21 -17 -42 -1 -20 -11
-47 -22 -58 -19 -20 -18 -44 1 -32 5 3 7 9 4 13 -2 5 4 16 15 26 11 10 17 22
14 26 -3 5 2 6 10 3 12 -5 11 -9 -5 -25 -11 -11 -17 -24 -14 -29 3 -4 -1 -11
-7 -13 -7 -3 -4 -6 7 -6 16 -1 17 -3 6 -13 -11 -11 -14 -10 -18 0 -3 6 -8 10
-13 7 -5 -3 -14 1 -22 8 -7 7 -23 12 -35 11 -13 -1 -23 3 -23 8 0 6 7 7 15 4
9 -3 18 1 22 10 3 8 12 13 20 10 8 -3 11 -1 8 4 -3 6 0 10 7 10 9 0 9 3 -2 10
-13 8 -12 10 3 10 9 0 17 4 17 8 0 12 -34 42 -46 42 -5 0 -1 -5 9 -11 9 -5 17
-15 17 -21 0 -7 -4 -7 -13 1 -16 13 -31 3 -18 -13 6 -7 4 -18 -4 -29 -12 -16
-13 -14 -9 20 4 41 4 81 2 211 l-1 83 -36 -3 c-31 -3 -36 -6 -34 -25 4 -31
-13 -29 -21 2 -5 21 -12 25 -41 25 -19 0 -35 -3 -36 -7 0 -5 -1 -69 -2 -143
-1 -74 -6 -141 -11 -149 -6 -10 -6 -12 2 -7 7 4 12 1 12 -8 0 -12 5 -14 24 -6
15 5 27 5 35 -3 11 -11 15 7 12 58 -1 18 0 18 9 -3 5 -12 6 -30 3 -39 -4 -10
-2 -14 5 -9 6 3 13 2 17 -4 3 -6 -4 -14 -16 -18 -17 -7 -19 -10 -7 -14 8 -4
21 2 29 13 14 19 35 27 24 9 -3 -6 -3 -19 0 -31 5 -14 12 -18 26 -14 12 4 21
1 25 -9 3 -9 10 -13 15 -10 5 3 9 -5 9 -18 0 -17 -3 -19 -9 -9 -7 11 -10 11
-17 0 -4 -7 -3 -14 4 -17 7 -2 12 -11 12 -19 0 -11 -7 -14 -25 -11 -14 3 -25
2 -25 -3 0 -4 8 -9 18 -11 14 -3 13 -5 -5 -10 -14 -4 -21 -2 -20 5 1 6 -7 11
-18 12 -11 0 -19 6 -17 13 1 7 -5 15 -13 18 -23 9 -18 29 10 44 29 15 25 26
-12 33 -24 4 -26 4 -10 -8 15 -11 15 -14 3 -24 -12 -10 -17 -7 -30 16 -11 21
-15 23 -16 10 0 -10 7 -25 15 -33 8 -8 11 -22 8 -31 -4 -9 -2 -14 3 -12 5 3
21 -8 36 -23 21 -22 23 -28 10 -28 -13 0 -14 -2 -3 -9 9 -6 10 -10 2 -16 -9
-5 -9 -10 0 -21 6 -8 8 -14 4 -14 -4 0 -2 -7 5 -15 9 -10 9 -15 1 -15 -6 0
-12 5 -12 10 -1 9 -3 17 -8 38 -2 4 -6 -2 -10 -13 -5 -12 -4 -23 3 -28 6 -5 2
-7 -11 -4 -13 3 -23 1 -23 -4 0 -5 5 -9 12 -9 6 0 3 -6 -8 -14 -18 -14 -17
-15 13 -11 27 3 31 2 20 -9 -6 -8 -16 -11 -22 -8 -16 10 -35 11 -35 1 0 -5 -7
-9 -16 -9 -14 0 -14 1 0 16 9 8 16 20 16 26 0 6 -10 0 -23 -13 -14 -14 -20
-29 -15 -35 4 -6 5 -14 1 -18 -4 -4 -8 -19 -9 -34 -1 -15 0 -20 2 -11 3 10 13
19 24 22 14 4 18 0 15 -14 -6 -28 10 -23 23 7 7 14 8 23 2 19 -5 -3 -10 -2
-10 3 0 5 -7 9 -15 9 -8 0 -15 -4 -15 -9 0 -4 -5 -8 -12 -8 -9 0 -9 3 0 12 14
14 72 20 72 7 0 -9 29 15 107 88 24 22 55 44 68 47 14 4 25 11 25 16 0 5 9 18
21 29 20 18 20 20 2 30 -10 6 -13 11 -8 11 6 0 4 4 -3 9 -11 7 -10 9 3 14 9 4
13 3 10 -3 -3 -6 -1 -10 5 -10 6 0 8 -4 5 -10 -13 -21 20 -9 47 17 24 23 26
27 11 38 -14 11 -14 12 1 18 11 5 15 3 10 -5 -5 -8 0 -9 15 -5 12 3 39 -1 58
-10 l37 -15 -32 -25 c-18 -13 -30 -29 -27 -34 4 -5 0 -9 -9 -9 -8 0 -16 -5
-18 -12 -2 -6 -20 -17 -39 -23 -25 -9 -34 -18 -34 -34 0 -13 -7 -28 -16 -34
-8 -7 -15 -23 -16 -36 -1 -13 1 -21 4 -17 3 3 11 2 17 -4 7 -5 17 -5 26 2 12
8 12 9 -2 4 -10 -3 -20 -1 -23 4 -4 6 0 10 7 11 7 0 5 4 -5 8 -16 6 -17 9 -5
18 10 9 19 5 40 -18 15 -16 24 -29 20 -29 -4 0 -1 -4 7 -9 27 -17 39 -2 30 37
-5 20 -9 42 -9 47 0 6 36 30 80 55 44 25 80 48 80 53 0 4 9 7 19 7 43 0 30
107 -14 124 -9 3 -13 10 -10 16 4 6 -1 7 -11 3 -13 -5 -15 -3 -9 8 8 12 6 12
-8 0 -15 -11 -17 -11 -17 2 0 8 -6 18 -12 21 -9 3 -3 13 16 29 19 17 26 29 20
38 -6 10 -3 10 11 -1 17 -13 18 -13 13 0 -4 11 2 16 22 17 20 1 31 -5 40 -23
7 -13 22 -24 32 -24 25 0 78 28 78 40 0 6 5 10 11 10 13 0 48 40 49 55 0 6 10
15 23 20 27 12 32 68 5 73 -14 3 -33 -28 -30 -48 0 -3 -8 -8 -19 -12 -11 -4
-18 -11 -16 -15 3 -5 -6 -9 -20 -10 -14 0 -29 -7 -33 -13 -9 -14 -30 -5 -30
13 0 7 -5 19 -10 27 -9 13 -11 13 -21 0 -9 -13 -10 -13 -6 1 3 9 1 21 -4 26
-10 10 -6 11 45 14 17 1 26 10 33 33 11 38 6 69 -10 59 -7 -4 -6 1 2 11 12 15
12 19 -1 32 -19 19 -68 27 -88 15z m75 -21 c-3 -5 -12 -10 -18 -10 -7 0 -6 4
3 10 19 12 23 12 15 0z m-250 -60 c8 7 12 5 12 -4 0 -18 -39 -15 -45 4 -4 12
-2 13 9 3 8 -8 17 -9 24 -3z m76 -66 c6 -8 9 -14 5 -14 -3 0 -9 0 -13 0 -5 0
-8 5 -8 10 0 6 -5 14 -12 18 -7 5 -10 17 -6 32 l7 25 7 -28 c4 -16 13 -35 20
-43z m-48 25 c-4 -15 -8 -17 -14 -8 -6 10 -11 10 -25 -2 -15 -12 -17 -12 -12
1 2 8 15 17 29 21 13 4 25 7 26 8 0 1 -1 -8 -4 -20z m101 2 c3 -5 -1 -14 -8
-20 -10 -9 -16 -9 -21 -1 -4 6 -1 9 7 8 7 -2 12 3 11 10 -3 14 3 16 11 3z m23
-57 c-3 -3 -12 -4 -19 -1 -8 3 -5 6 6 6 11 1 17 -2 13 -5z m-82 -13 c3 -5 1
-12 -5 -16 -5 -3 -10 0 -10 7 0 9 -3 9 -10 -2 -5 -8 -10 -10 -10 -4 0 22 24
32 35 15z m-65 -21 c0 -5 -2 -10 -4 -10 -3 0 -8 5 -11 10 -3 6 -1 10 4 10 6 0
11 -4 11 -10z m104 -5 c-4 -8 -7 -15 -9 -15 -2 0 -5 7 -9 15 -3 9 0 15 9 15 9
0 12 -6 9 -15z m-119 -35 c3 -5 1 -10 -4 -10 -6 0 -11 5 -11 10 0 6 2 10 4 10
3 0 8 -4 11 -10z m63 -15 c-3 -3 -9 2 -12 12 -6 14 -5 15 5 6 7 -7 10 -15 7
-18z m-58 -15 c0 -5 -7 -7 -15 -4 -8 4 -15 8 -15 10 0 2 7 4 15 4 8 0 15 -4
15 -10z m-130 -15 c5 3 11 1 15 -5 4 -6 -4 -10 -19 -10 -27 0 -44 16 -24 23 7
2 15 0 16 -5 2 -4 8 -6 12 -3z m82 -17 c-8 -8 -9 -4 -5 13 4 13 8 18 11 10 2
-7 -1 -18 -6 -23z m124 17 c-1 -8 -5 -17 -8 -21 -5 -4 -4 16 1 34 3 9 9 -1 7
-13z m-71 -15 c-3 -5 -11 -10 -16 -10 -6 0 -7 5 -4 10 3 6 11 10 16 10 6 0 7
-4 4 -10z m-104 -23 c-6 -8 -7 -18 -3 -22 4 -5 2 -5 -5 -1 -14 8 -6 36 9 36 7
0 6 -5 -1 -13z m149 3 c0 -5 -5 -10 -11 -10 -5 0 -7 5 -4 10 3 6 8 10 11 10 2
0 4 -4 4 -10z m-80 -23 c12 -20 11 -21 -2 -9 -9 7 -22 10 -30 7 -8 -3 -15 0
-15 8 0 21 32 17 47 -6z m-47 -50 c4 3 7 4 7 0 0 -18 -21 -14 -30 5 -10 21
-10 21 3 6 8 -10 17 -15 20 -11z m137 13 c0 -5 -5 -10 -11 -10 -5 0 -7 5 -4
10 3 6 8 10 11 10 2 0 4 -4 4 -10z m-70 -14 c0 -2 -9 -6 -20 -9 -11 -3 -18 -1
-14 4 5 9 34 13 34 5z m-130 -20 c0 -3 -4 -8 -10 -11 -5 -3 -10 -1 -10 4 0 6
5 11 10 11 6 0 10 -2 10 -4z m88 -21 c-3 -3 -9 2 -12 12 -6 14 -5 15 5 6 7 -7
10 -15 7 -18z m26 0 c-4 -8 -8 -15 -10 -15 -2 0 -4 7 -4 15 0 8 4 15 10 15 5
0 7 -7 4 -15z m-94 -20 c0 -7 -30 -13 -34 -7 -3 4 4 9 15 9 10 1 19 0 19 -2z
m-51 -46 c-8 -5 -9 -9 -4 -9 6 0 2 -7 -8 -15 -11 -7 -25 -11 -32 -9 -14 6 -9
44 6 44 5 0 6 -7 3 -15 -4 -9 0 -15 10 -15 9 0 15 3 15 8 -3 20 2 32 12 26 8
-4 7 -9 -2 -15z m81 -2 c10 -4 8 -6 -6 -6 -12 -1 -25 6 -28 15 -5 13 -3 14 6
7 7 -6 20 -13 28 -16z m-76 -52 c-4 -8 -8 -15 -10 -15 -2 0 -4 7 -4 15 0 8 4
15 10 15 5 0 7 -7 4 -15z m-40 -3 c2 -4 0 -14 -6 -22 -8 -12 -9 -12 -5 2 3 9
1 19 -6 22 -9 3 -9 5 0 5 6 1 14 -3 17 -7z m-74 -73 c0 -15 -18 -19 -23 -6 -3
8 1 14 9 14 8 0 14 -4 14 -8z m26 -6 c-2 -9 -8 -19 -15 -21 -10 -3 -10 0 -2
17 14 25 20 27 17 4z"/>
<path d="M304 1380 l-40 -5 1 -113 c0 -62 -3 -116 -7 -118 -5 -3 -5 -11 -1
-17 11 -17 11 -57 1 -63 -4 -3 -8 -11 -8 -17 0 -8 3 -8 8 -2 4 6 15 11 25 11
14 2 15 -1 6 -12 -10 -12 -9 -13 5 -8 9 3 16 10 16 15 0 4 7 6 15 3 12 -5 15
6 15 66 0 62 2 71 18 69 44 -4 52 1 52 31 0 28 -3 30 -35 30 -33 0 -35 2 -35
35 0 34 1 35 40 35 33 0 40 3 40 20 0 11 1 23 3 28 3 10 -70 18 -119 12z"/>
<path d="M570 1382 c-6 -2 -10 -17 -10 -33 0 -25 4 -29 26 -29 l26 0 -4 -145
c-1 -79 -1 -138 2 -131 3 7 14 12 25 10 50 -8 52 -2 51 127 -1 67 1 124 4 129
3 4 14 9 24 11 29 6 31 59 2 60 -12 0 -47 1 -79 2 -31 1 -62 1 -67 -1z"/>
<path d="M1010 1372 c-22 -17 -23 -27 -24 -133 -1 -109 7 -159 26 -159 5 0 7
-3 5 -7 -9 -14 76 -12 104 2 34 18 38 40 35 170 -4 128 -2 120 -31 133 -38 18
-90 15 -115 -6z m78 -147 c1 -85 -7 -119 -25 -101 -10 10 -10 190 0 204 18 23
24 -5 25 -103z"/>
<path d="M452 1293 c-1 -49 -3 -103 -5 -120 -2 -18 0 -33 3 -33 4 0 4 -19 0
-43 l-6 -43 35 2 c65 4 76 5 64 11 -10 3 -13 45 -13 159 l0 154 -39 0 -38 0
-1 -87z"/>
<path d="M769 1368 c-4 -67 -2 -293 3 -306 4 -9 7 -12 7 -6 1 6 14 9 31 6 29
-4 30 -3 30 34 l1 39 17 -35 c14 -28 23 -35 50 -37 17 -1 34 2 36 6 3 4 -7 35
-21 69 -23 58 -24 65 -9 81 11 12 16 36 16 74 0 46 -4 58 -22 71 -28 20 -138
22 -139 4z m91 -84 c0 -24 -4 -34 -12 -32 -12 4 -19 54 -10 71 8 17 22 -7 22
-39z"/>
<path d="M1510 1334 c-11 -12 -11 -15 -1 -12 8 2 15 -5 16 -14 3 -18 -3 -20
-53 -21 -15 0 -19 -3 -13 -11 6 -7 6 -17 1 -26 -13 -20 -13 -50 0 -50 5 0 7 7
4 15 -4 10 0 15 12 16 11 0 14 3 7 6 -23 9 -14 20 30 41 41 19 60 53 36 67 -5
3 -6 -2 -2 -11 4 -12 2 -15 -8 -12 -8 3 -13 11 -11 17 3 15 -3 14 -18 -5z"/>
<path d="M1593 1285 c0 -8 4 -12 9 -9 5 3 6 10 3 15 -9 13 -12 11 -12 -6z"/>
<path d="M1513 1236 c0 -8 5 -12 10 -9 7 4 8 -1 3 -13 -6 -15 -5 -17 5 -6 11
10 10 15 -2 28 -14 13 -16 13 -16 0z"/>
<path d="M1549 1241 c7 -5 10 -14 7 -20 -9 -15 7 -14 22 1 18 18 15 23 -15 26
-20 1 -24 -1 -14 -7z"/>
<path d="M1406 1174 c-11 -8 -16 -14 -10 -14 13 0 39 18 34 24 -3 2 -14 -2
-24 -10z"/>
<path d="M1427 1143 c3 -7 6 -13 8 -13 2 0 5 6 8 13 3 8 -1 14 -8 14 -7 0 -11
-6 -8 -14z"/>
<path d="M160 1100 c0 -5 5 -10 11 -10 5 0 7 5 4 10 -3 6 -8 10 -11 10 -2 0
-4 -4 -4 -10z"/>
<path d="M417 1073 c3 -7 6 -13 8 -13 2 0 5 6 8 13 3 8 -1 14 -8 14 -7 0 -11
-6 -8 -14z"/>
<path d="M386 1053 c-4 -9 -1 -21 5 -27 9 -8 10 -7 4 3 -4 7 -2 16 5 21 8 5 8
10 2 14 -5 3 -13 -2 -16 -11z"/>
<path d="M1182 1051 c-11 -7 -11 -9 0 -14 9 -3 15 1 15 9 0 8 -1 14 -1 14 -1
0 -7 -4 -14 -9z"/>
<path d="M940 1040 c-8 -5 -10 -10 -5 -10 6 0 17 5 25 10 8 5 11 10 5 10 -5 0
-17 -5 -25 -10z"/>
<path d="M688 1033 c7 -3 16 -2 19 1 4 3 -2 6 -13 5 -11 0 -14 -3 -6 -6z"/>
<path d="M1050 1031 c0 -6 4 -13 10 -16 6 -3 7 1 4 9 -7 18 -14 21 -14 7z"/>
<path d="M1135 1020 c-3 -5 -1 -10 4 -10 6 0 11 5 11 10 0 6 -2 10 -4 10 -3 0
-8 -4 -11 -10z"/>
<path d="M611 1012 c-1 -7 -5 -11 -9 -8 -5 3 -21 -1 -36 -9 -14 -8 -24 -10
-21 -5 4 6 2 10 -4 10 -5 0 -8 -12 -6 -27 2 -16 4 -33 4 -40 1 -7 10 -21 21
-31 l21 -19 -21 -6 c-23 -6 -28 -48 -7 -65 19 -16 63 -18 81 -3 25 21 21 85
-6 103 l-22 15 24 -1 c18 -1 25 4 25 19 0 11 -4 25 -8 32 -5 7 -5 18 -1 24 5
9 2 10 -9 6 -9 -3 -18 -1 -21 6 -3 9 -5 8 -5 -1z m-14 -164 c-3 -7 -5 -2 -5
12 0 14 2 19 5 13 2 -7 2 -19 0 -25z"/>
<path d="M1007 1013 c-4 -3 -24 -9 -44 -12 -35 -6 -38 -9 -37 -38 0 -20 -4
-29 -10 -25 -7 4 -7 1 0 -9 6 -8 10 -40 8 -71 -3 -61 13 -81 44 -56 12 10 16
10 19 1 2 -7 11 -9 19 -6 8 3 14 0 14 -6 0 -8 4 -8 14 1 12 11 11 19 -6 52
-14 27 -17 41 -9 49 14 14 14 84 0 92 -6 4 -8 13 -5 21 6 15 3 18 -7 7z"/>
<path d="M1186 1012 c-3 -5 1 -9 9 -9 8 0 12 4 9 9 -3 4 -7 8 -9 8 -2 0 -6 -4
-9 -8z"/>
<path d="M472 1001 c-11 -7 -11 -9 0 -14 9 -3 15 1 15 9 0 8 -1 14 -1 14 -1 0
-7 -4 -14 -9z"/>
<path d="M690 1002 c-25 -3 -25 -3 -22 -99 2 -94 11 -118 37 -110 6 2 12 20
15 41 4 26 12 40 30 49 14 7 27 24 30 37 2 14 7 -3 10 -40 4 -55 8 -66 29 -76
17 -9 32 -9 52 -2 25 9 29 15 29 50 0 29 3 37 13 32 8 -6 8 -3 -1 9 -8 9 -12
31 -11 50 5 55 -12 66 -88 58 -7 0 -16 -13 -19 -27 -6 -24 -8 -25 -17 -8 -18
33 -41 42 -87 36z m37 -64 c-3 -8 -6 -5 -6 6 -1 11 2 17 5 13 3 -3 4 -12 1
-19z m124 -55 c-2 -33 -6 -42 -11 -29 -3 11 -5 29 -4 40 1 12 3 32 4 46 1 20
3 21 8 8 4 -10 5 -39 3 -65z"/>
<path d="M1103 1003 c-55 -4 -62 -6 -60 -24 1 -11 9 -25 19 -30 14 -7 15 -15
8 -34 -5 -13 -5 -27 -1 -29 12 -8 6 -83 -8 -100 -8 -9 -7 -13 4 -13 8 0 12 4
9 9 -5 8 -1 9 36 12 8 1 14 8 12 15 -2 8 3 11 12 8 9 -4 15 -3 15 1 -3 20 3
23 19 11 16 -12 16 -12 0 6 -17 18 -16 20 8 36 25 16 25 16 4 22 -15 4 -20 2
-16 -8 6 -18 -20 -27 -32 -12 -16 19 -16 21 -3 46 8 14 9 21 2 17 -7 -5 -9 -1
-5 8 3 9 12 16 19 16 7 0 18 7 25 15 11 13 10 14 -6 8 -17 -6 -17 -5 -5 10 7
9 12 16 10 15 -2 -1 -32 -3 -66 -5z m37 -161 c0 -15 -2 -15 -10 -2 -13 20 -13
33 0 25 6 -3 10 -14 10 -23z"/>
<path d="M1220 985 c-8 -9 -8 -15 -2 -15 12 0 26 19 19 26 -2 2 -10 -2 -17
-11z"/>
<path d="M1342 979 c-18 -12 -31 -24 -28 -27 3 -3 12 1 21 8 10 8 15 9 15 1 0
-20 -4 -26 -16 -23 -6 1 -11 -5 -11 -13 0 -19 11 -19 31 0 9 9 17 11 21 5 3
-5 11 -10 17 -10 6 0 3 9 -7 20 -10 11 -13 20 -7 20 7 0 12 5 12 11 0 6 -9 8
-22 4 -21 -5 -21 -5 2 9 14 9 21 15 15 15 -5 1 -25 -9 -43 -20z"/>
<path d="M1189 975 c-1 -3 -2 -8 -3 -12 -1 -5 -5 -14 -9 -20 -6 -9 -3 -11 7
-7 8 3 14 14 13 25 -1 18 -5 25 -8 14z"/>
<path d="M1222 948 c-18 -18 -14 -31 7 -25 11 3 22 -1 25 -8 3 -8 -3 -16 -12
-18 -16 -4 -16 -5 0 -6 22 -1 33 16 19 33 -6 7 -8 16 -4 20 4 4 -1 4 -11 0
-14 -5 -17 -4 -12 4 9 15 3 15 -12 0z"/>
<path d="M1264 866 c-4 -17 -11 -23 -21 -19 -10 4 -11 8 -3 13 8 5 7 9 -4 13
-11 5 -16 1 -16 -13 0 -11 7 -20 16 -20 8 0 13 -4 9 -9 -3 -5 0 -13 6 -17 7
-4 9 -3 5 4 -3 6 -2 13 4 17 5 3 10 1 10 -4 0 -6 9 -2 20 9 25 25 25 27 0 40
-17 9 -20 7 -26 -14z m18 -18 c-7 -7 -12 -8 -12 -2 0 14 12 26 19 19 2 -3 -1
-11 -7 -17z"/>
<path d="M1040 839 c0 -5 5 -7 10 -4 6 3 10 8 10 11 0 2 -4 4 -10 4 -5 0 -10
-5 -10 -11z"/>
<path d="M1223 656 c3 -8 -1 -17 -9 -20 -21 -8 -17 -44 7 -56 19 -11 20 -9 18
39 -2 28 -7 51 -12 51 -5 0 -7 -6 -4 -14z m7 -56 c0 -5 -5 -10 -11 -10 -5 0
-7 5 -4 10 3 6 8 10 11 10 2 0 4 -4 4 -10z"/>
</g>
</svg>
