<svg viewBox="0 0 16 16" fill="none" xmlns="http://www.w3.org/2000/svg">
<path fill-rule="evenodd" clip-rule="evenodd" d="M7.99992 14.6667C11.6818 14.6667 14.6666 11.6819 14.6666 8.00004C14.6666 4.31814 11.6818 1.33337 7.99992 1.33337C4.31802 1.33337 1.33325 4.31814 1.33325 8.00004C1.33325 11.6819 4.31802 14.6667 7.99992 14.6667ZM8.89992 4.33337C8.89992 3.83632 8.49697 3.43337 7.99992 3.43337C7.50286 3.43337 7.09992 3.83632 7.09992 4.33337V8.00004C7.09992 8.23874 7.19474 8.46765 7.36352 8.63644L9.36352 10.6364C9.71499 10.9879 10.2848 10.9879 10.6363 10.6364C10.9878 10.285 10.9878 9.71512 10.6363 9.36364L8.89992 7.62725V4.33337Z" fill="currentColor"/>
</svg>
