<svg width="24" height="24" viewBox="0 0 24 24" fill="none" xmlns="http://www.w3.org/2000/svg">
  <path d="M20.4219 4H3.57812C2.15655 4 1 5.15655 1 6.57812V17.5781C1 18.9997 2.15655 20.1562 3.57812 20.1562H20.4219C21.8435 20.1562 23 18.9997 23 17.5781V6.57812C23 5.15655 21.8435 4 20.4219 4ZM21.2812 17.5781C21.2812 18.052 20.8957 18.4375 20.4219 18.4375H3.57812C3.10427 18.4375 2.71875 18.052 2.71875 17.5781V6.57812C2.71875 6.10427 3.10427 5.71875 3.57812 5.71875H20.4219C20.8957 5.71875 21.2812 6.10427 21.2812 6.57812V17.5781Z" fill="black" />
  <path d="M21.1353 5.07153L12 11.8665L2.86464 5.07153L1.83881 6.45062L12 14.0086L22.1611 6.45062L21.1353 5.07153Z" fill="black" />
</svg>
