<svg  viewBox="0 0 16 16" fill="none" xmlns="http://www.w3.org/2000/svg">
<path fill-rule="evenodd" clip-rule="evenodd" d="M4.014 1.10016C4.15999 1.10237 4.29756 1.13934 4.41878 1.20317L4.014 1.10016ZM3.99137 1.1001C3.77052 1.1022 3.56869 1.18384 3.41316 1.31776C3.3799 1.34637 3.34894 1.37722 3.32047 1.41003C3.18319 1.56802 3.1001 1.77433 3.1001 2.00006V11.3334V14.6667C3.1001 15.1638 3.50304 15.5667 4.0001 15.5667C4.49715 15.5667 4.9001 15.1638 4.9001 14.6667V11.8896L13.7359 7.47171C14.0408 7.31925 14.2334 7.00762 14.2334 6.66672C14.2334 6.32583 14.0408 6.01419 13.7359 5.86174L4.41878 1.20317" fill="currentColor"/>
</svg>
