<svg width="45" height="41" viewBox="0 0 45 41" fill="none" xmlns="http://www.w3.org/2000/svg">
<path d="M36.0193 10.8265L33.8829 8.9172C33.0063 8.13349 31.8711 7.70044 30.6947 7.70044H26.9005V14.3084H24.8326V24.8069H28.9388H41.8576V10.8265H36.0193Z" fill="#FFEDEA"/>
<path d="M34.4694 24.8068C34.48 24.6894 34.4871 24.5715 34.4871 24.4526C34.4871 23.6148 34.2295 22.8113 33.742 22.1289L26.6478 14.0371L26.0706 14.3083H26.9007H26.9016L26.9017 14.3089L26.9007 14.3083H24.8327V24.8068H28.9389H34.4694Z" fill="#D78878"/>
<path d="M28.098 24.9848C28.8063 25.9929 28.5714 27.3868 27.5668 28.1065C27.1697 28.3905 26.7121 28.5272 26.2589 28.5272C25.5584 28.5272 24.8677 28.2003 24.4285 27.5875L24.1813 27.2421C24.9027 28.252 24.6695 29.6555 23.6606 30.3778C23.2643 30.6618 22.8067 30.7986 22.3535 30.7986C21.6522 30.7986 20.9614 30.4716 20.5222 29.858L20.3829 29.6634C21.1061 30.6732 20.8738 32.0785 19.8639 32.8017C19.4677 33.0857 19.0101 33.2224 18.5568 33.2224C17.8555 33.2224 17.1648 32.8955 16.7256 32.2818L11.5377 24.9445C11.4763 24.8577 11.3773 24.8069 11.2721 24.8069L3.01779 24.8209V10.652H9.24621L9.92384 9.95244C10.8417 9.00569 12.104 8.47095 13.4233 8.47095H20.6222L26.0704 14.3084L32.3128 23.1448C32.5969 23.541 32.7336 23.9986 32.7336 24.4527C32.7336 25.1531 32.4066 25.8439 31.793 26.2831C30.7831 27.0054 29.3788 26.7731 28.6556 25.7632L28.098 24.9848Z" fill="#FED2A4"/>
<path d="M44.2481 10.0602V25.5647C44.2481 25.9412 43.9429 26.2464 43.5664 26.2464H38.2625C37.7905 26.2464 37.4078 25.8638 37.4078 25.3917V10.2331C37.4078 9.76106 37.7905 9.37842 38.2625 9.37842H43.5664C43.9429 9.37842 44.2481 9.68366 44.2481 10.0602Z" fill="#FFC368"/>
<path d="M18.1425 30.7323C18.5816 31.3459 19.2724 31.6729 19.9737 31.6729C20.2287 31.6729 20.4847 31.6279 20.7308 31.5395C20.6031 32.0313 20.3092 32.4829 19.8639 32.8018C19.4677 33.0859 19.0101 33.2226 18.5568 33.2226C17.8555 33.2226 17.1648 32.8956 16.7256 32.282L11.5377 24.9446C11.4763 24.8579 11.3773 24.807 11.2721 24.807L3.01779 24.821V10.6522H9.24621L9.33826 10.5571V21.6621C9.33826 22.5458 10.0554 23.2618 10.9391 23.2603L12.1963 23.2614C12.6302 23.2618 13.0367 23.4731 13.2863 23.828L18.1425 30.7323Z" fill="#FFBD86"/>
<path d="M7.58507 10.2331V25.3917C7.58507 25.8638 7.20242 26.2464 6.73036 26.2464H1.14538C0.875735 26.2464 0.657104 26.0278 0.657104 25.7582V9.8667C0.657104 9.59705 0.875735 9.37842 1.14538 9.37842H6.73036C7.20242 9.37842 7.58507 9.76106 7.58507 10.2331Z" fill="#56C5DA"/>
<path d="M6.73036 23.093H1.14538C0.875735 23.093 0.657104 22.8744 0.657104 22.6047V25.7583C0.657104 26.0279 0.875735 26.2466 1.14538 26.2466H6.73036C7.20242 26.2466 7.58507 25.8639 7.58507 25.3919V22.2383C7.58507 22.7103 7.20242 23.093 6.73036 23.093Z" fill="#56C5DA"/>
<path d="M26.0704 14.3084L20.6222 8.47095H18.3152L13.9721 13.5492C13.3927 14.2258 13.0736 15.0891 13.0736 15.9801C13.0736 16.9786 13.4624 17.9173 14.1683 18.6233C14.8744 19.3293 15.8132 19.7182 16.812 19.7182C17.66 19.7182 18.4914 19.4255 19.1521 18.8945L22.6809 16.0616H27.309L26.0704 14.3084Z" fill="#FFBD86"/>
<path d="M26.9006 7.70044H22.2957C21.6523 7.70044 21.0413 7.98184 20.6223 8.47099L15.3038 14.6898C14.9847 15.0623 14.8269 15.5217 14.8269 15.9802C14.8269 16.4895 15.0224 16.9979 15.4081 17.3836C16.1243 18.0998 17.2648 18.1621 18.0546 17.5274L21.8478 14.4823C21.988 14.3698 22.1622 14.3084 22.3419 14.3084H26.9005V7.70044H26.9006Z" fill="#FFEDEA"/>
<path d="M0.657469 10.0358H6.73064C6.83943 10.0358 6.92788 10.1243 6.92788 10.2331V19.95C6.92788 20.3131 7.22225 20.6075 7.58535 20.6075C7.94844 20.6075 8.24282 20.3131 8.24282 19.95V11.3097H9.24611C9.42407 11.3097 9.59439 11.2375 9.71826 11.1098L10.396 10.4105C11.1855 9.59588 12.2889 9.12863 13.4233 9.12863H19.1949L14.8037 14.262C13.9126 15.3038 13.9739 16.8791 14.9432 17.8484C15.4573 18.3625 16.1331 18.6238 16.812 18.6237C17.3948 18.6237 17.98 18.431 18.4665 18.0403L22.2952 14.9658H25.7303L29.2333 19.9248C29.3615 20.1062 29.5645 20.2029 29.771 20.2029C29.902 20.2029 30.0345 20.1639 30.1497 20.0824C30.4462 19.8729 30.5168 19.4626 30.3074 19.1661L27.2635 14.8569C27.4415 14.7393 27.5591 14.5376 27.5591 14.3083C27.5591 13.9452 27.2648 13.6508 26.9016 13.6508H22.0639C21.9142 13.6508 21.769 13.7019 21.6523 13.7956L17.6432 17.015C17.114 17.4399 16.3531 17.3985 15.873 16.9186C15.386 16.4315 15.3552 15.6401 15.803 15.1167L21.1222 8.89852C21.416 8.55497 21.8438 8.35791 22.2959 8.35791H28.0011C28.3643 8.35791 28.6586 8.06354 28.6586 7.70044C28.6586 7.33734 28.3643 7.04297 28.0011 7.04297H22.2959C21.5658 7.04297 20.8702 7.3206 20.3432 7.81361H13.4233C11.9351 7.81361 10.4875 8.42655 9.45177 9.49524L8.96778 9.99465H8.22221C8.10729 9.27398 7.48322 8.72083 6.73064 8.72083H0.657469C0.294371 8.72083 0 9.0152 0 9.3783C0 9.7414 0.294371 10.0358 0.657469 10.0358Z" fill="#232527"/>
<path d="M44.2478 25.5884H38.2623C38.1535 25.5884 38.065 25.4999 38.065 25.3912V10.2331C38.065 10.1243 38.1535 10.0358 38.2623 10.0358H44.2478C44.611 10.0358 44.9053 9.74139 44.9053 9.37829C44.9053 9.01519 44.611 8.72082 44.2478 8.72082H38.2623C37.4499 8.72082 36.7871 9.36505 36.7533 10.1692H36.2707L34.3213 8.42715C33.3571 7.56552 32.113 7.07487 30.818 7.04559C30.4508 7.03717 30.1541 7.32497 30.1458 7.68807C30.1376 8.05108 30.4253 8.35202 30.7882 8.36018C31.7705 8.38235 32.7141 8.75439 33.4452 9.40757L35.5817 11.3169C35.7021 11.4246 35.8581 11.4841 36.0197 11.4841H36.75V24.1492H33.3753C33.324 23.6541 33.1461 23.1789 32.8499 22.7652L31.924 21.4546C31.7145 21.1581 31.3044 21.0875 31.0077 21.2969C30.7111 21.5064 30.6406 21.9167 30.85 22.2132L31.7783 23.5273C32.0258 23.8729 32.1238 24.2943 32.0544 24.7138C31.9851 25.1333 31.7564 25.5006 31.4107 25.748C31.065 25.9955 30.6436 26.0933 30.2242 26.0242C29.8048 25.9547 29.4374 25.7261 29.1899 25.3805L27.3766 22.8479C27.1652 22.5526 26.7543 22.4847 26.4593 22.6961C26.164 22.9075 26.096 23.3182 26.3075 23.6134L27.5516 25.351C28.0625 26.0647 27.8976 27.0609 27.184 27.5718C26.8386 27.8193 26.4173 27.9174 25.9976 27.8479C25.5782 27.7785 25.2108 27.5498 24.9633 27.2042L23.7192 25.4665C23.5078 25.1712 23.097 25.1034 22.8019 25.3147C22.5066 25.5262 22.4387 25.9368 22.6501 26.232L23.6456 27.6224C24.1564 28.336 23.9914 29.332 23.2779 29.8429C22.5643 30.3539 21.5681 30.189 21.0571 29.4753L20.0618 28.0852C19.8504 27.7899 19.4397 27.7218 19.1445 27.9334C18.8493 28.1447 18.7812 28.5554 18.9927 28.8507L19.8484 30.046C20.0959 30.3917 20.194 30.8131 20.1246 31.2325C20.0552 31.652 19.8265 32.0193 19.4809 32.2668C18.7673 32.7777 17.7711 32.6129 17.2624 31.9025L12.0744 24.5646C11.8905 24.3045 11.5906 24.1492 11.2722 24.1492H8.2429V22.7519C8.2429 22.3888 7.94853 22.0944 7.58543 22.0944C7.22234 22.0944 6.92797 22.3888 6.92797 22.7519V25.3911C6.92797 25.4999 6.83943 25.5883 6.73072 25.5883H0.657469C0.294371 25.5883 0 25.8827 0 26.2458C0 26.6089 0.294371 26.9032 0.657469 26.9032H6.73064C7.53976 26.9032 8.20065 26.2639 8.23913 25.4641H11.1L16.1909 32.6647C16.7577 33.4564 17.6515 33.8782 18.5581 33.8782C19.1438 33.8782 19.7348 33.7021 20.2463 33.3359C20.8775 32.8839 21.295 32.2132 21.4218 31.4472C21.4295 31.4006 21.436 31.3539 21.4415 31.3072C21.7361 31.4043 22.0447 31.4544 22.3551 31.4544C22.9407 31.4544 23.5318 31.2783 24.0432 30.9121C24.7034 30.4395 25.1056 29.7392 25.221 28.9941C25.4008 29.0623 25.5887 29.1132 25.7828 29.1453C25.9434 29.1719 26.104 29.185 26.2635 29.185C26.8651 29.185 27.4505 28.9982 27.9493 28.641C28.5282 28.2265 28.9085 27.6372 29.0715 26.9959C29.3591 27.1554 29.6751 27.2661 30.0092 27.3214C30.1698 27.348 30.3304 27.3611 30.4901 27.3611C31.0916 27.3611 31.677 27.1743 32.1759 26.8171C32.6549 26.4741 33.0104 26.005 33.2096 25.4641H36.7534C36.7919 26.2639 37.4527 26.9032 38.262 26.9032H44.2475C44.6106 26.9032 44.9049 26.6089 44.9049 26.2458C44.9049 25.8827 44.611 25.5884 44.2478 25.5884Z" fill="#232527"/>
<path d="M22.4527 3.59872C22.8159 3.59872 23.1101 3.30435 23.1101 2.94125V0.657469C23.1101 0.294371 22.8159 0 22.4527 0C22.0896 0 21.7952 0.294371 21.7952 0.657469V2.94116C21.7952 3.30435 22.0896 3.59872 22.4527 3.59872Z" fill="#232527"/>
<path d="M28.9948 4.94324C29.0802 4.98041 29.1692 4.99803 29.2569 4.99803C29.5106 4.99803 29.7523 4.85032 29.86 4.60294L30.7718 2.50921C30.9168 2.17626 30.7644 1.78888 30.4315 1.64389C30.0988 1.49907 29.7111 1.65125 29.5662 1.9842L28.6545 4.07793C28.5095 4.41078 28.6618 4.79816 28.9948 4.94324Z" fill="#232527"/>
<path d="M15.0454 4.60277C15.1531 4.85024 15.3948 4.99786 15.6485 4.99786C15.7362 4.99786 15.8252 4.98024 15.9107 4.94299C16.2436 4.79799 16.396 4.41061 16.2509 4.07767L15.3391 1.98394C15.1941 1.65109 14.8068 1.49873 14.4737 1.64372C14.1408 1.78872 13.9884 2.1761 14.1335 2.50904L15.0454 4.60277Z" fill="#232527"/>
<path d="M22.4527 37.4014C22.0896 37.4014 21.7952 37.6957 21.7952 38.0588V40.3425C21.7952 40.7056 22.0896 41 22.4527 41C22.8159 41 23.1101 40.7056 23.1101 40.3425V38.0588C23.1101 37.6957 22.8159 37.4014 22.4527 37.4014Z" fill="#232527"/>
<path d="M29.86 36.3973C29.7152 36.0645 29.3276 35.912 28.9948 36.057C28.6618 36.202 28.5095 36.5894 28.6545 36.9224L29.5662 39.0161C29.674 39.2636 29.9156 39.4112 30.1694 39.4112C30.2569 39.4112 30.3461 39.3936 30.4315 39.3564C30.7644 39.2114 30.9168 38.824 30.7718 38.4911L29.86 36.3973Z" fill="#232527"/>
<path d="M15.9107 36.0571C15.5776 35.912 15.1903 36.0644 15.0453 36.3973L14.1335 38.4911C13.9885 38.8239 14.1408 39.2114 14.4737 39.3564C14.5592 39.3936 14.6482 39.4112 14.7359 39.4112C14.9896 39.4112 15.2313 39.2635 15.339 39.0161L16.2509 36.9224C16.396 36.5895 16.2436 36.2021 15.9107 36.0571Z" fill="#232527"/>
</svg>
