<svg width="100%" height="100%" viewBox="0 0 30 30" fill="none" xmlns="http://www.w3.org/2000/svg">
<path d="M24 21.75V15.1301C24 13.9814 24 13.4071 23.8519 12.8781C23.7208 12.4096 23.5053 11.9689 23.2159 11.5777C22.8893 11.1361 22.436 10.7835 21.5292 10.0783L18.9292 8.05606L18.9292 8.05605C17.5239 6.96305 16.8213 6.41654 16.0454 6.20647C15.3608 6.02111 14.6392 6.02111 13.9546 6.20647C13.1787 6.41654 12.4761 6.96305 11.0708 8.05606L8.47078 10.0783C7.56404 10.7835 7.11067 11.1361 6.78405 11.5777C6.49473 11.9689 6.2792 12.4096 6.14805 12.8781C6 13.4071 6 13.9814 6 15.1301V21.75C6 22.4478 6 22.7967 6.08612 23.0806C6.28002 23.7198 6.78023 24.22 7.41943 24.4139C7.70333 24.5 8.05222 24.5 8.75 24.5H9.375C9.49106 24.5 9.5491 24.5 9.59814 24.4976C10.6255 24.4471 11.4471 23.6255 11.4976 22.5981C11.5 22.5491 11.5 22.4911 11.5 22.375V19.5C11.5 17.567 13.067 16 15 16C16.933 16 18.5 17.567 18.5 19.5V22.375C18.5 22.4911 18.5 22.5491 18.5024 22.5981C18.5529 23.6255 19.3745 24.4471 20.4019 24.4976C20.4509 24.5 20.5089 24.5 20.625 24.5H21.25C21.9478 24.5 22.2967 24.5 22.5806 24.4139C23.2198 24.22 23.72 23.7198 23.9139 23.0806C24 22.7967 24 22.4478 24 21.75Z" stroke="black" stroke-width="1.8"/>
</svg>
