<svg width="24" height="24" viewBox="0 0 24 24" fill="none" xmlns="http://www.w3.org/2000/svg">
  <path fill-rule="evenodd" clip-rule="evenodd" d="M6.59998 6.49998C6.59998 3.51764 9.01764 1.09998 12 1.09998C14.9823 1.09998 17.4 3.51764 17.4 6.49998V8.60646C17.7103 8.61224 17.9907 8.62317 18.2437 8.64384C18.7996 8.68926 19.3017 8.78614 19.7705 9.02505C20.5044 9.39896 21.101 9.99558 21.4749 10.7294C21.7138 11.1983 21.8107 11.7004 21.8561 12.2563C21.9 12.7934 21.9 13.4542 21.9 14.2623V14.3V16.7V16.7377C21.9 17.5457 21.9 18.2066 21.8561 18.7437C21.8107 19.2996 21.7138 19.8017 21.4749 20.2705C21.101 21.0044 20.5044 21.601 19.7705 21.9749C19.3017 22.2138 18.7996 22.3107 18.2437 22.3561C17.7066 22.4 17.0457 22.4 16.2377 22.4H16.2H7.79998H7.76227C6.95422 22.4 6.29337 22.4 5.75629 22.3561C5.20038 22.3107 4.6983 22.2138 4.22941 21.9749C3.49558 21.601 2.89896 21.0044 2.52505 20.2705C2.28614 19.8017 2.18926 19.2996 2.14384 18.7437C2.09996 18.2066 2.09997 17.5457 2.09998 16.7377V16.7377V16.7377V16.7V14.3V14.2623V14.2623V14.2622C2.09997 13.4542 2.09996 12.7934 2.14384 12.2563C2.18926 11.7004 2.28614 11.1983 2.52505 10.7294C2.89896 9.99558 3.49558 9.39896 4.22941 9.02505C4.6983 8.78614 5.20038 8.68926 5.75629 8.64384C6.00925 8.62317 6.28966 8.61224 6.59998 8.60646V6.49998ZM15.6 6.49998V8.59998H8.39998V6.49998C8.39998 4.51175 10.0118 2.89998 12 2.89998C13.9882 2.89998 15.6 4.51175 15.6 6.49998ZM5.90287 10.4379C5.45827 10.4742 5.21944 10.5408 5.0466 10.6289C4.65146 10.8302 4.3302 11.1515 4.12886 11.5466C4.04079 11.7194 3.97419 11.9583 3.93786 12.4029C3.90068 12.858 3.89998 13.445 3.89998 14.3V16.7C3.89998 17.5549 3.90068 18.142 3.93786 18.5971C3.97419 19.0417 4.04079 19.2805 4.12886 19.4534C4.3302 19.8485 4.65146 20.1698 5.0466 20.3711C5.21944 20.4592 5.45827 20.5258 5.90287 20.5621C6.35798 20.5993 6.94505 20.6 7.79998 20.6H16.2C17.0549 20.6 17.642 20.5993 18.0971 20.5621C18.5417 20.5258 18.7805 20.4592 18.9534 20.3711C19.3485 20.1698 19.6698 19.8485 19.8711 19.4534C19.9592 19.2805 20.0258 19.0417 20.0621 18.5971C20.0993 18.142 20.1 17.5549 20.1 16.7V14.3C20.1 13.445 20.0993 12.858 20.0621 12.4029C20.0258 11.9583 19.9592 11.7194 19.8711 11.5466C19.6698 11.1515 19.3485 10.8302 18.9534 10.6289C18.7805 10.5408 18.5417 10.4742 18.0971 10.4379C17.642 10.4007 17.0549 10.4 16.2 10.4H7.79998C6.94505 10.4 6.35798 10.4007 5.90287 10.4379ZM13 16.2324C13.5978 15.8866 14 15.2403 14 14.5C14 13.3954 13.1045 12.5 12 12.5C10.8954 12.5 9.99998 13.3954 9.99998 14.5C9.99998 15.2403 10.4022 15.8866 11 16.2324V18C11 18.5523 11.4477 19 12 19C12.5523 19 13 18.5523 13 18V16.2324Z" fill="black"/>
</svg>
