<svg width="18" height="16" viewBox="0 0 18 16" fill="none" xmlns="http://www.w3.org/2000/svg">
<path d="M16.8889 14.2222H0.888887C0.398227 14.2222 0 14.6204 0 15.1111C0 15.6018 0.398227 16 0.888887 16H16.8889C17.3795 16 17.7777 15.6018 17.7777 15.1111C17.7777 14.6204 17.3795 14.2222 16.8889 14.2222ZM0.888887 1.77777H16.8889C17.3795 1.77777 17.7777 1.37958 17.7777 0.888887C17.7777 0.398198 17.3795 0 16.8889 0H0.888887C0.398227 2.90486e-05 0 0.398227 0 0.888916C0 1.37958 0.398227 1.77777 0.888887 1.77777ZM16.8889 7.1111H0.888887C0.398227 7.1111 0 7.50933 0 8.00001C0 8.4907 0.398227 8.8889 0.888887 8.8889H16.8889C17.3795 8.8889 17.7777 8.49067 17.7777 8.00001C17.7777 7.50935 17.3795 7.1111 16.8889 7.1111Z" fill="#0D1A1E"/>
</svg>
