<svg width="80" height="79" viewBox="0 0 80 79" fill="none" xmlns="http://www.w3.org/2000/svg">
<path opacity="0.1" d="M41 0C19.4945 0 2 17.4945 2 39C2 60.5055 19.4945 78 41 78C62.5055 78 80 60.5055 80 39C80 17.4945 62.5055 0 41 0Z" fill="#4BDE74"/>
<path d="M41 15C27.7659 15 17 25.7659 17 39C17 52.2341 27.7659 63 41 63C54.2341 63 65 52.2341 65 39C65 25.7659 54.2341 15 41 15Z" fill="#4BDE74"/>
<path d="M53.1641 33.9141L40.1639 46.9138C39.7739 47.3038 39.262 47.5001 38.75 47.5001C38.238 47.5001 37.7261 47.3038 37.3361 46.9138L30.8362 40.4139C30.054 39.6321 30.054 38.3679 30.8362 37.5861C31.618 36.8038 32.8818 36.8038 33.6641 37.5861L38.75 42.672L50.3362 31.0862C51.118 30.304 52.3818 30.304 53.1641 31.0862C53.9459 31.868 53.9459 33.1318 53.1641 33.9141Z" fill="#FAFAFA"/>
</svg>
